<svg xmlns="http://www.w3.org/2000/svg" xmlns:svg="http://www.w3.org/2000/svg" id="svg3902" width="77.046" height="71.418" version="1.1" viewBox="0 0 20.385 18.896"><metadata id="metadata3899"/><g id="layer1" transform="translate(-53.014472,-50.679669)"><g id="g3855" transform="matrix(0.26458333,0,0,0.26458333,-3.690454,82.293252)"><flowRoot font-style="normal" style="line-height:1.25;-inkscape-font-specification:'Tamil MN'" id="flowRoot46" fill="#000" fill-opacity="1" stroke="none" font-family="Tamil MN" font-size="40" font-stretch="normal" font-variant="normal" font-weight="normal" letter-spacing="0" word-spacing="0" xml:space="preserve"><flowRegion id="flowRegion48"><rect id="rect50" width="33.796" height="74.35" x="322.658" y="77.367"/></flowRegion><flowPara id="flowPara52"/></flowRoot><g id="g945"><g id="g984"><g id="g920"><g id="g905"><g id="g890" transform="translate(10.824475,-139.945)"><path id="path13" fill="#cb3c33" fill-opacity="1" stroke-width="1.094" d="m 220.99257,91.878546 c -9.66394,0 -17.49921,-7.834179 -17.49921,-17.499213 0,-9.66394 7.83527,-17.499213 17.49921,-17.499213 9.66504,0 17.49922,7.835273 17.49922,17.499213 0,9.665034 -7.83418,17.499213 -17.49922,17.499213 z"/><path id="path25" fill="#9558b2" fill-opacity="1" stroke-width="1.094" d="m 263.03982,91.878546 c -9.66503,0 -17.49921,-7.834179 -17.49921,-17.499213 0,-9.66394 7.83418,-17.499213 17.49921,-17.499213 9.66504,0 17.49922,7.835273 17.49922,17.499213 0,9.665034 -7.83418,17.499213 -17.49922,17.499213 z"/><path id="path31" fill="#389826" fill-opacity="1" stroke-width="1.094" d="m 242.01809,55.459018 c -9.66503,0 -17.49921,-7.834179 -17.49921,-17.499213 0,-9.66394 7.83418,-17.499213 17.49921,-17.499213 9.66504,0 17.49922,7.835273 17.49922,17.499213 0,9.665034 -7.83418,17.499213 -17.49922,17.499213 z"/></g></g></g></g></g><flowRoot font-style="normal" style="line-height:1.25;-inkscape-font-specification:'Tamil MN'" id="flowRoot58" fill="#000" fill-opacity="1" stroke="none" font-family="Tamil MN" font-size="40" font-stretch="normal" font-variant="normal" font-weight="normal" letter-spacing="0" word-spacing="0" xml:space="preserve"><flowRegion id="flowRegion60"><rect id="rect62" width="4.98" height="54.073" x="325.86" y="124.681"/></flowRegion><flowPara id="flowPara64"/></flowRoot></g></g></svg>